<svg width="53" height="53" xmlns="http://www.w3.org/2000/svg">

 <g>
  <title>background</title>
  <rect fill="none" id="canvas_background" height="402" width="582" y="-1" x="-1"/>
 </g>
 <g>
  <title>Layer 1</title>
  <path id="svg_1" fill="#E7ECED" d="m18.613001,41.551998l-7.907001,4.313004c-0.464001,0.252998 -0.881001,0.563999 -1.269,0.903c4.61,3.886997 10.560999,6.231998 17.063,6.231998c6.453999,0 12.367001,-2.310001 16.964001,-6.144001c-0.424,-0.357998 -0.883999,-0.68 -1.394001,-0.933998l-8.466999,-4.233002c-1.094002,-0.547001 -1.785,-1.665001 -1.785,-2.888l0,-3.321999c0.237999,-0.271 0.509998,-0.618999 0.800999,-1.029999c1.153999,-1.630001 2.027,-3.423002 2.632,-5.304001c1.086002,-0.335001 1.886002,-1.338001 1.886002,-2.530001l0,-3.546c0,-0.780001 -0.347,-1.477001 -0.886002,-1.965l0,-5.126c0,0 1.053001,-7.976999 -9.75,-7.976999s-9.75,7.976999 -9.75,7.976999l0,5.126c-0.539999,0.487999 -0.886,1.184999 -0.886,1.965l0,3.546c0,0.934 0.491001,1.756001 1.226,2.231001c0.886,3.856998 3.206001,6.632999 3.206001,6.632999l0,3.240002c-0.001001,1.179996 -0.647001,2.266998 -1.684,2.832996z"/>
  <g id="svg_2">
   <path id="svg_3" fill="#424242" d="m26.952999,0.004c-14.632999,-0.25 -26.698999,11.41 -26.948999,26.043001c-0.142,8.297001 3.556,15.753998 9.444,20.712997c0.385,-0.335999 0.798,-0.643997 1.257,-0.893997l7.907,-4.313c1.037001,-0.566002 1.683001,-1.653 1.683001,-2.835003l0,-3.239998c0,0 -2.320999,-2.776001 -3.205999,-6.633001c-0.734001,-0.474998 -1.226001,-1.296 -1.226001,-2.230999l0,-3.546c0,-0.780001 0.346999,-1.477001 0.886001,-1.965l0,-5.126c0,0 -1.053,-7.977 9.75,-7.977s9.75,7.977 9.75,7.977l0,5.126c0.540001,0.487999 0.885998,1.184999 0.885998,1.965l0,3.546c0,1.191999 -0.799999,2.195 -1.885998,2.529999c-0.605,1.881001 -1.478001,3.674002 -2.632,5.304003c-0.291,0.410999 -0.563,0.758999 -0.801001,1.029999l0,3.321999c0,1.223 0.691,2.341999 1.785002,2.888l8.466999,4.233002c0.507999,0.253998 0.966999,0.574997 1.389999,0.931999c5.709999,-4.762001 9.398998,-11.882 9.535999,-19.900002c0.251999,-14.632999 -11.406998,-26.698999 -26.041,-26.948999z"/>
  </g>
  <g id="svg_4"/>
  <g id="svg_5"/>
  <g id="svg_6"/>
  <g id="svg_7"/>
  <g id="svg_8"/>
  <g id="svg_9"/>
  <g id="svg_10"/>
  <g id="svg_11"/>
  <g id="svg_12"/>
  <g id="svg_13"/>
  <g id="svg_14"/>
  <g id="svg_15"/>
  <g id="svg_16"/>
  <g id="svg_17"/>
  <g id="svg_18"/>
 </g>
</svg>